<svg width="50" height="32" viewBox="0 0 50 32" fill="none" xmlns="http://www.w3.org/2000/svg">
<rect width="50" height="32" rx="16" fill="#858584"/>
<path d="M13.792 16.432V14.576L17.44 12.24V12.048H11.104V10.8H18.592V12.848L14.944 15.184V15.376H15.584C16.0107 15.376 16.4213 15.4453 16.816 15.584C17.2107 15.7227 17.5573 15.9253 17.856 16.192C18.1653 16.4587 18.4107 16.7893 18.592 17.184C18.784 17.568 18.88 18.016 18.88 18.528V18.816C18.88 19.296 18.784 19.744 18.592 20.16C18.4 20.576 18.1333 20.9387 17.792 21.248C17.4507 21.5467 17.0453 21.7867 16.576 21.968C16.1173 22.1387 15.616 22.224 15.072 22.224C14.4427 22.224 13.8773 22.128 13.376 21.936C12.8747 21.744 12.448 21.4827 12.096 21.152C11.744 20.8107 11.472 20.416 11.28 19.968C11.0987 19.5093 11.008 19.024 11.008 18.512V17.648H12.352V18.416C12.352 18.8213 12.416 19.184 12.544 19.504C12.6827 19.8133 12.8693 20.08 13.104 20.304C13.3493 20.5173 13.6373 20.6827 13.968 20.8C14.2987 20.9173 14.656 20.976 15.04 20.976C15.392 20.976 15.7173 20.9173 16.016 20.8C16.3253 20.6827 16.592 20.5227 16.816 20.32C17.04 20.1067 17.216 19.8613 17.344 19.584C17.472 19.296 17.536 18.992 17.536 18.672V18.576C17.536 17.904 17.3227 17.3813 16.896 17.008C16.4693 16.624 15.936 16.432 15.296 16.432H13.792ZM20.7569 15.152C20.7569 13.7013 21.1035 12.576 21.7969 11.776C22.4902 10.976 23.4555 10.576 24.6929 10.576C25.9302 10.576 26.8955 10.976 27.5889 11.776C28.2822 12.576 28.6289 13.7013 28.6289 15.152V17.648C28.6289 19.1413 28.2822 20.2773 27.5889 21.056C26.8955 21.8347 25.9302 22.224 24.6929 22.224C23.4555 22.224 22.4902 21.8347 21.7969 21.056C21.1035 20.2773 20.7569 19.1413 20.7569 17.648V15.152ZM24.6929 21.008C25.5569 21.008 26.2022 20.7093 26.6289 20.112C27.0662 19.504 27.2849 18.6507 27.2849 17.552V15.248C27.2849 14.736 27.2315 14.272 27.1249 13.856C27.0182 13.4293 26.8529 13.0667 26.6289 12.768C26.4155 12.4587 26.1435 12.2187 25.8129 12.048C25.4929 11.8773 25.1195 11.792 24.6929 11.792C24.2555 11.792 23.8769 11.8773 23.5569 12.048C23.2369 12.2187 22.9649 12.4587 22.7409 12.768C22.5275 13.0667 22.3675 13.4293 22.2609 13.856C22.1542 14.272 22.1009 14.736 22.1009 15.248V17.552C22.1009 18.6507 22.3142 19.504 22.7409 20.112C23.1782 20.7093 23.8289 21.008 24.6929 21.008ZM23.6689 16.4C23.6689 16.1227 23.7702 15.8827 23.9729 15.68C24.1755 15.4773 24.4155 15.376 24.6929 15.376C24.9702 15.376 25.2102 15.4773 25.4129 15.68C25.6155 15.8827 25.7169 16.1227 25.7169 16.4C25.7169 16.6773 25.6155 16.9173 25.4129 17.12C25.2102 17.3227 24.9702 17.424 24.6929 17.424C24.4155 17.424 24.1755 17.3227 23.9729 17.12C23.7702 16.9173 23.6689 16.6773 23.6689 16.4ZM38.2978 20.752V22H30.7138V20.08C30.7138 19.568 30.7991 19.1253 30.9698 18.752C31.1404 18.368 31.3804 18.0427 31.6898 17.776C32.0098 17.4987 32.3938 17.2693 32.8418 17.088C33.2898 16.9067 33.7964 16.752 34.3618 16.624C35.3111 16.4107 35.9938 16.1067 36.4098 15.712C36.8364 15.3173 37.0498 14.832 37.0498 14.256V14.16C37.0498 13.872 37.0018 13.5893 36.9058 13.312C36.8098 13.0347 36.6604 12.784 36.4578 12.56C36.2551 12.336 35.9938 12.16 35.6738 12.032C35.3644 11.8933 34.9911 11.824 34.5538 11.824C33.7324 11.824 33.0924 12.0747 32.6338 12.576C32.1858 13.0773 31.9618 13.744 31.9618 14.576V15.28H30.6178V14.48C30.6178 13.968 30.7031 13.4773 30.8738 13.008C31.0444 12.5387 31.2951 12.1227 31.6258 11.76C31.9564 11.3973 32.3671 11.1093 32.8578 10.896C33.3484 10.6827 33.9138 10.576 34.5538 10.576C35.2044 10.576 35.7698 10.6773 36.2498 10.88C36.7298 11.072 37.1298 11.3333 37.4498 11.664C37.7698 11.984 38.0044 12.352 38.1538 12.768C38.3138 13.1733 38.3938 13.5893 38.3938 14.016V14.304C38.3938 15.1573 38.1271 15.888 37.5938 16.496C37.0604 17.0933 36.2071 17.52 35.0338 17.776C34.0098 18 33.2578 18.2987 32.7778 18.672C32.2978 19.0347 32.0578 19.568 32.0578 20.272V20.752H38.2978Z" fill="white"/>
</svg>
