<svg width="30" height="30" viewBox="0 0 30 30" fill="none" xmlns="http://www.w3.org/2000/svg">
<rect width="30" height="30" rx="15" fill="#2B2B2B"/>
<path d="M9.50713 19.752V10.392H9.31512L7.47513 14.6H6.14713V14.504L8.24313 9.8H10.8511V19.752H14.0191V21H6.33913V19.752H9.50713ZM18.792 15.432V13.576L22.44 11.24V11.048H16.104V9.8H23.592V11.848L19.944 14.184V14.376H20.584C21.0107 14.376 21.4213 14.4453 21.816 14.584C22.2107 14.7227 22.5573 14.9253 22.856 15.192C23.1653 15.4587 23.4107 15.7893 23.592 16.184C23.784 16.568 23.88 17.016 23.88 17.528V17.816C23.88 18.296 23.784 18.744 23.592 19.16C23.4 19.576 23.1333 19.9387 22.792 20.248C22.4507 20.5467 22.0453 20.7867 21.576 20.968C21.1173 21.1387 20.616 21.224 20.072 21.224C19.4427 21.224 18.8773 21.128 18.376 20.936C17.8747 20.744 17.448 20.4827 17.096 20.152C16.744 19.8107 16.472 19.416 16.28 18.968C16.0987 18.5093 16.008 18.024 16.008 17.512V16.648H17.352V17.416C17.352 17.8213 17.416 18.184 17.544 18.504C17.6827 18.8133 17.8693 19.08 18.104 19.304C18.3493 19.5173 18.6373 19.6827 18.968 19.8C19.2987 19.9173 19.656 19.976 20.04 19.976C20.392 19.976 20.7173 19.9173 21.016 19.8C21.3253 19.6827 21.592 19.5227 21.816 19.32C22.04 19.1067 22.216 18.8613 22.344 18.584C22.472 18.296 22.536 17.992 22.536 17.672V17.576C22.536 16.904 22.3227 16.3813 21.896 16.008C21.4693 15.624 20.936 15.432 20.296 15.432H18.792Z" fill="#858584"/>
</svg>
