<svg width="30" height="30" viewBox="0 0 30 30" fill="none" xmlns="http://www.w3.org/2000/svg">
<rect width="30" height="30" rx="15" fill="#2B2B2B"/>
<path d="M13.9071 19.752V21H6.32313V19.08C6.32313 18.568 6.40846 18.1253 6.57913 17.752C6.74979 17.368 6.98979 17.0427 7.29913 16.776C7.61913 16.4987 8.00313 16.2693 8.45113 16.088C8.89913 15.9067 9.40579 15.752 9.97113 15.624C10.9205 15.4107 11.6031 15.1067 12.0191 14.712C12.4458 14.3173 12.6591 13.832 12.6591 13.256V13.16C12.6591 12.872 12.6111 12.5893 12.5151 12.312C12.4191 12.0347 12.2698 11.784 12.0671 11.56C11.8645 11.336 11.6031 11.16 11.2831 11.032C10.9738 10.8933 10.6005 10.824 10.1631 10.824C9.34179 10.824 8.70179 11.0747 8.24313 11.576C7.79513 12.0773 7.57113 12.744 7.57113 13.576V14.28H6.22713V13.48C6.22713 12.968 6.31246 12.4773 6.48313 12.008C6.65379 11.5387 6.90446 11.1227 7.23513 10.76C7.56579 10.3973 7.97646 10.1093 8.46713 9.896C8.95779 9.68267 9.52313 9.576 10.1631 9.576C10.8138 9.576 11.3791 9.67733 11.8591 9.88C12.3391 10.072 12.7391 10.3333 13.0591 10.664C13.3791 10.984 13.6138 11.352 13.7631 11.768C13.9231 12.1733 14.0031 12.5893 14.0031 13.016V13.304C14.0031 14.1573 13.7365 14.888 13.2031 15.496C12.6698 16.0933 11.8165 16.52 10.6431 16.776C9.61913 17 8.86713 17.2987 8.38713 17.672C7.90713 18.0347 7.66713 18.568 7.66713 19.272V19.752H13.9071ZM15.96 14.152C15.96 12.7013 16.3067 11.576 17 10.776C17.6933 9.976 18.6587 9.576 19.896 9.576C21.1333 9.576 22.0987 9.976 22.792 10.776C23.4853 11.576 23.832 12.7013 23.832 14.152V16.648C23.832 18.1413 23.4853 19.2773 22.792 20.056C22.0987 20.8347 21.1333 21.224 19.896 21.224C18.6587 21.224 17.6933 20.8347 17 20.056C16.3067 19.2773 15.96 18.1413 15.96 16.648V14.152ZM19.896 20.008C20.76 20.008 21.4053 19.7093 21.832 19.112C22.2693 18.504 22.488 17.6507 22.488 16.552V14.248C22.488 13.736 22.4347 13.272 22.328 12.856C22.2213 12.4293 22.056 12.0667 21.832 11.768C21.6187 11.4587 21.3467 11.2187 21.016 11.048C20.696 10.8773 20.3227 10.792 19.896 10.792C19.4587 10.792 19.08 10.8773 18.76 11.048C18.44 11.2187 18.168 11.4587 17.944 11.768C17.7307 12.0667 17.5707 12.4293 17.464 12.856C17.3573 13.272 17.304 13.736 17.304 14.248V16.552C17.304 17.6507 17.5173 18.504 17.944 19.112C18.3813 19.7093 19.032 20.008 19.896 20.008ZM18.872 15.4C18.872 15.1227 18.9733 14.8827 19.176 14.68C19.3787 14.4773 19.6187 14.376 19.896 14.376C20.1733 14.376 20.4133 14.4773 20.616 14.68C20.8187 14.8827 20.92 15.1227 20.92 15.4C20.92 15.6773 20.8187 15.9173 20.616 16.12C20.4133 16.3227 20.1733 16.424 19.896 16.424C19.6187 16.424 19.3787 16.3227 19.176 16.12C18.9733 15.9173 18.872 15.6773 18.872 15.4Z" fill="#858584"/>
</svg>
