<svg width="30" height="30" viewBox="0 0 30 30" fill="none" xmlns="http://www.w3.org/2000/svg">
<rect width="30" height="30" rx="15" fill="#2B2B2B"/>
<path d="M9.50713 19.752V10.392H9.31512L7.47513 14.6H6.14713V14.504L8.24313 9.8H10.8511V19.752H14.0191V21H6.33913V19.752H9.50713ZM17.544 17.736C17.544 18.4293 17.7573 18.9893 18.184 19.416C18.6107 19.832 19.2027 20.04 19.96 20.04C20.3227 20.04 20.6533 19.976 20.952 19.848C21.2613 19.72 21.5227 19.5387 21.736 19.304C21.96 19.0587 22.1307 18.776 22.248 18.456C22.376 18.1253 22.44 17.7573 22.44 17.352V15.688H22.248C22.0027 16.1573 21.6507 16.5253 21.192 16.792C20.7333 17.0587 20.2 17.192 19.592 17.192C19.0693 17.192 18.5893 17.112 18.152 16.952C17.7147 16.792 17.336 16.5573 17.016 16.248C16.696 15.928 16.4453 15.544 16.264 15.096C16.0933 14.648 16.008 14.136 16.008 13.56V13.368C16.008 12.8133 16.104 12.3067 16.296 11.848C16.488 11.3787 16.7547 10.9787 17.096 10.648C17.448 10.3067 17.8587 10.0453 18.328 9.864C18.808 9.672 19.3307 9.576 19.896 9.576C20.4613 9.576 20.9787 9.672 21.448 9.864C21.928 10.0453 22.3387 10.3013 22.68 10.632C23.032 10.9627 23.304 11.3573 23.496 11.816C23.688 12.2747 23.784 12.776 23.784 13.32V17.352C23.784 17.9493 23.6827 18.488 23.48 18.968C23.288 19.4373 23.016 19.8427 22.664 20.184C22.3227 20.5147 21.9173 20.7707 21.448 20.952C20.9787 21.1333 20.472 21.224 19.928 21.224C19.384 21.224 18.8827 21.144 18.424 20.984C17.9653 20.824 17.5707 20.5947 17.24 20.296C16.9093 19.9867 16.6533 19.6187 16.472 19.192C16.2907 18.7547 16.2 18.2693 16.2 17.736H17.544ZM19.896 10.76C19.512 10.76 19.16 10.824 18.84 10.952C18.5307 11.08 18.264 11.2613 18.04 11.496C17.816 11.7307 17.6453 12.008 17.528 12.328C17.4107 12.6373 17.352 12.9733 17.352 13.336V13.528C17.352 13.9013 17.416 14.2427 17.544 14.552C17.672 14.8507 17.848 15.112 18.072 15.336C18.296 15.5493 18.5627 15.7147 18.872 15.832C19.1813 15.9493 19.5227 16.008 19.896 16.008C20.2587 16.008 20.5947 15.9493 20.904 15.832C21.2133 15.704 21.48 15.5333 21.704 15.32C21.9387 15.1067 22.12 14.8507 22.248 14.552C22.376 14.2533 22.44 13.9333 22.44 13.592V13.288C22.44 12.936 22.3813 12.6053 22.264 12.296C22.1467 11.9867 21.976 11.72 21.752 11.496C21.528 11.2613 21.256 11.08 20.936 10.952C20.6267 10.824 20.28 10.76 19.896 10.76Z" fill="#858584"/>
</svg>
