<svg width="30" height="30" viewBox="0 0 30 30" fill="none" xmlns="http://www.w3.org/2000/svg">
<rect width="30" height="30" rx="15" fill="#2B2B2B"/>
<path d="M9.50713 19.752V10.392H9.31512L7.47513 14.6H6.14713V14.504L8.24313 9.8H10.8511V19.752H14.0191V21H6.33913V19.752H9.50713ZM22.248 13.064C22.248 12.3707 22.0347 11.816 21.608 11.4C21.1813 10.9733 20.5893 10.76 19.832 10.76C19.4693 10.76 19.1333 10.824 18.824 10.952C18.5253 11.08 18.264 11.2667 18.04 11.512C17.8267 11.7467 17.656 12.0293 17.528 12.36C17.4107 12.6907 17.352 13.0533 17.352 13.448V15.112H17.544C17.8 14.6427 18.1627 14.2747 18.632 14.008C19.112 13.7413 19.6453 13.608 20.232 13.608C20.744 13.608 21.2187 13.6933 21.656 13.864C22.0933 14.024 22.4667 14.264 22.776 14.584C23.096 14.904 23.3413 15.2933 23.512 15.752C23.6933 16.2 23.784 16.712 23.784 17.288V17.48C23.784 18.0347 23.6827 18.5413 23.48 19C23.288 19.4587 23.016 19.8533 22.664 20.184C22.3227 20.5147 21.912 20.7707 21.432 20.952C20.9627 21.1333 20.4507 21.224 19.896 21.224C19.3413 21.224 18.824 21.1333 18.344 20.952C17.8747 20.7707 17.464 20.52 17.112 20.2C16.7707 19.8693 16.4987 19.48 16.296 19.032C16.104 18.5733 16.008 18.072 16.008 17.528V13.448C16.008 12.8613 16.1093 12.328 16.312 11.848C16.5147 11.368 16.792 10.9627 17.144 10.632C17.496 10.2907 17.9013 10.0293 18.36 9.848C18.8293 9.66667 19.3307 9.576 19.864 9.576C20.3973 9.576 20.8933 9.656 21.352 9.816C21.8107 9.976 22.2053 10.2107 22.536 10.52C22.8667 10.8187 23.1227 11.1867 23.304 11.624C23.496 12.0507 23.592 12.5307 23.592 13.064H22.248ZM19.896 20.04C20.28 20.04 20.6267 19.9813 20.936 19.864C21.256 19.736 21.528 19.56 21.752 19.336C21.976 19.112 22.1467 18.8453 22.264 18.536C22.3813 18.2267 22.44 17.8853 22.44 17.512V17.32C22.44 16.9467 22.376 16.6053 22.248 16.296C22.12 15.9867 21.944 15.72 21.72 15.496C21.496 15.272 21.224 15.1013 20.904 14.984C20.5947 14.856 20.2587 14.792 19.896 14.792C19.5333 14.792 19.1973 14.856 18.888 14.984C18.5787 15.112 18.3067 15.288 18.072 15.512C17.848 15.736 17.672 15.9973 17.544 16.296C17.416 16.5947 17.352 16.9147 17.352 17.256V17.56C17.352 17.912 17.4107 18.2427 17.528 18.552C17.6453 18.8507 17.816 19.112 18.04 19.336C18.264 19.56 18.5307 19.736 18.84 19.864C19.16 19.9813 19.512 20.04 19.896 20.04Z" fill="#858584"/>
</svg>
