<svg width="30" height="30" viewBox="0 0 30 30" fill="none" xmlns="http://www.w3.org/2000/svg">
<rect width="30" height="30" rx="15" fill="#2B2B2B"/>
<path d="M9.50713 19.752V10.392H9.31512L7.47513 14.6H6.14713V14.504L8.24313 9.8H10.8511V19.752H14.0191V21H6.33913V19.752H9.50713ZM16.152 9.8H23.64V11.752L18.92 18.888C18.696 19.2293 18.5253 19.5227 18.408 19.768C18.2907 20.0133 18.232 20.264 18.232 20.52V21H16.92V20.424C16.92 20.232 16.936 20.0507 16.968 19.88C17.0107 19.7093 17.0693 19.5387 17.144 19.368C17.2293 19.1867 17.3307 19 17.448 18.808C17.576 18.6053 17.7253 18.376 17.896 18.12L22.488 11.24V11.048H16.152V9.8Z" fill="#858584"/>
</svg>
