<svg width="30" height="30" viewBox="0 0 30 30" fill="none" xmlns="http://www.w3.org/2000/svg">
<rect width="30" height="30" rx="15" fill="#2B2B2B"/>
<path d="M9.50713 19.752V10.392H9.31512L7.47513 14.6H6.14713V14.504L8.24313 9.8H10.8511V19.752H14.0191V21H6.33913V19.752H9.50713ZM19.752 21.224C19.1867 21.224 18.6747 21.1493 18.216 21C17.7573 20.84 17.3627 20.6267 17.032 20.36C16.7013 20.0827 16.4453 19.7627 16.264 19.4C16.0933 19.0267 16.008 18.6213 16.008 18.184V17.992C16.008 17.608 16.0667 17.2667 16.184 16.968C16.3013 16.6693 16.456 16.408 16.648 16.184C16.84 15.96 17.0587 15.7733 17.304 15.624C17.56 15.4747 17.8213 15.3627 18.088 15.288V15.096C17.8427 15.0213 17.6133 14.9093 17.4 14.76C17.1867 14.6107 16.9947 14.4347 16.824 14.232C16.664 14.0293 16.536 13.8 16.44 13.544C16.344 13.2773 16.296 12.9893 16.296 12.68V12.488C16.296 12.0613 16.3813 11.672 16.552 11.32C16.7227 10.9573 16.9627 10.648 17.272 10.392C17.592 10.136 17.9653 9.93867 18.392 9.8C18.8293 9.65067 19.3147 9.576 19.848 9.576H19.944C20.4667 9.576 20.9467 9.65067 21.384 9.8C21.8213 9.93867 22.1947 10.136 22.504 10.392C22.824 10.648 23.0693 10.9573 23.24 11.32C23.4107 11.672 23.496 12.0613 23.496 12.488V12.68C23.496 12.9893 23.448 13.2773 23.352 13.544C23.256 13.8 23.1227 14.0293 22.952 14.232C22.792 14.4347 22.6 14.6107 22.376 14.76C22.1627 14.9093 21.9387 15.0213 21.704 15.096V15.288C21.9707 15.3627 22.2267 15.4747 22.472 15.624C22.728 15.7733 22.952 15.96 23.144 16.184C23.336 16.408 23.4907 16.6693 23.608 16.968C23.7253 17.2667 23.784 17.608 23.784 17.992V18.184C23.784 18.6213 23.6933 19.0267 23.512 19.4C23.3413 19.7627 23.0907 20.0827 22.76 20.36C22.4293 20.6267 22.0347 20.84 21.576 21C21.1173 21.1493 20.6053 21.224 20.04 21.224H19.752ZM19.992 20.008C20.7173 20.008 21.304 19.8213 21.752 19.448C22.2107 19.0747 22.44 18.5893 22.44 17.992V17.896C22.44 17.2347 22.2053 16.7227 21.736 16.36C21.2773 15.9973 20.68 15.816 19.944 15.816H19.848C19.112 15.816 18.5093 15.9973 18.04 16.36C17.5813 16.7227 17.352 17.2347 17.352 17.896V17.992C17.352 18.5893 17.576 19.0747 18.024 19.448C18.4827 19.8213 19.0747 20.008 19.8 20.008H19.992ZM19.896 14.568C20.568 14.568 21.112 14.392 21.528 14.04C21.944 13.688 22.152 13.2453 22.152 12.712V12.616C22.152 12.072 21.944 11.6347 21.528 11.304C21.1227 10.9627 20.5787 10.792 19.896 10.792C19.2133 10.792 18.664 10.9627 18.248 11.304C17.8427 11.6347 17.64 12.072 17.64 12.616V12.712C17.64 13.2453 17.848 13.688 18.264 14.04C18.68 14.392 19.224 14.568 19.896 14.568Z" fill="#858584"/>
</svg>
