<svg width="30" height="30" viewBox="0 0 30 30" fill="none" xmlns="http://www.w3.org/2000/svg">
<rect width="30" height="30" rx="15" fill="#2B2B2B"/>
<path d="M9.50713 19.752V10.392H9.31512L7.47513 14.6H6.14713V14.504L8.24313 9.8H10.8511V19.752H14.0191V21H6.33913V19.752H9.50713ZM16.248 15.72V9.8H23.256V11.048H17.56V15.048H17.752C17.8587 14.8347 17.9973 14.632 18.168 14.44C18.3387 14.2373 18.536 14.0613 18.76 13.912C18.9947 13.7627 19.256 13.6453 19.544 13.56C19.832 13.464 20.152 13.416 20.504 13.416C21.016 13.416 21.4853 13.5013 21.912 13.672C22.3493 13.8427 22.7227 14.0827 23.032 14.392C23.3413 14.7013 23.5813 15.0747 23.752 15.512C23.9333 15.9493 24.024 16.4347 24.024 16.968V17.256C24.024 17.7893 23.9387 18.296 23.768 18.776C23.5973 19.2453 23.3467 19.6667 23.016 20.04C22.6853 20.4027 22.2747 20.6907 21.784 20.904C21.2933 21.1173 20.728 21.224 20.088 21.224C19.4373 21.224 18.8613 21.128 18.36 20.936C17.8587 20.744 17.4373 20.4773 17.096 20.136C16.7547 19.7947 16.4933 19.3947 16.312 18.936C16.1413 18.4667 16.056 17.96 16.056 17.416V16.968H17.4V17.32C17.4 18.2053 17.6453 18.872 18.136 19.32C18.6373 19.7573 19.288 19.976 20.088 19.976C20.5147 19.976 20.888 19.9013 21.208 19.752C21.5387 19.592 21.8107 19.384 22.024 19.128C22.248 18.8613 22.4133 18.5573 22.52 18.216C22.6267 17.864 22.68 17.5013 22.68 17.128V17.032C22.68 16.7013 22.6213 16.392 22.504 16.104C22.3973 15.816 22.2427 15.5653 22.04 15.352C21.848 15.1387 21.608 14.9733 21.32 14.856C21.0427 14.728 20.7387 14.664 20.408 14.664C20.184 14.664 19.976 14.696 19.784 14.76C19.6027 14.824 19.4427 14.9093 19.304 15.016C19.1653 15.112 19.048 15.224 18.952 15.352C18.8667 15.48 18.808 15.6027 18.776 15.72H16.248Z" fill="#858584"/>
</svg>
